<!DOCTYPE svg PUBLIC "-//W3C//DTD SVG 1.1//EN" "http://www.w3.org/Graphics/SVG/1.1/DTD/svg11.dtd">
<!-- Uploaded to: SVG Repo, www.svgrepo.com, Transformed by: SVG Repo Mixer Tools -->
<svg width="800px" height="800px" viewBox="-3.99 0 48.892 48.892" xmlns="http://www.w3.org/2000/svg" fill="#000000">
<g id="SVGRepo_bgCarrier" stroke-width="0"/>
<g id="SVGRepo_tracerCarrier" stroke-linecap="round" stroke-linejoin="round"/>
<g id="SVGRepo_iconCarrier"> <g id="building_bank" data-name="building bank" transform="translate(-230.045 -226.054)"> <path id="Path_90" data-name="Path 90" d="M266.464,226.554H234.536v47.891h31.927V226.554Z" fill="#94bbe6" fill-rule="evenodd"/> <path id="Path_91" data-name="Path 91" d="M254.491,262.473h-7.982v11.973h7.982V262.473Z" fill="#364378" fill-rule="evenodd"/> <path id="Path_92" data-name="Path 92" d="M246.509,254.491h-7.982v3.991h7.982v-3.991Z" fill="#f2f7fd" fill-rule="evenodd"/> <path id="Path_93" data-name="Path 93" d="M246.509,246.509h-7.982V250.5h7.982v-3.991Z" fill="#f2f7fd" fill-rule="evenodd"/> <path id="Path_94" data-name="Path 94" d="M246.509,238.527h-7.982v3.991h7.982v-3.991Z" fill="#f2f7fd" fill-rule="evenodd"/> <path id="Path_95" data-name="Path 95" d="M246.509,230.545h-7.982v3.991h7.982v-3.991Z" fill="#f2f7fd" fill-rule="evenodd"/> <path id="Path_96" data-name="Path 96" d="M262.473,254.491h-7.982v3.991h7.982v-3.991Z" fill="#f2f7fd" fill-rule="evenodd"/> <path id="Path_97" data-name="Path 97" d="M262.473,246.509h-7.982V250.5h7.982v-3.991Z" fill="#f2f7fd" fill-rule="evenodd"/> <path id="Path_98" data-name="Path 98" d="M262.473,238.527h-7.982v3.991h7.982v-3.991Z" fill="#f2f7fd" fill-rule="evenodd"/> <path id="Path_99" data-name="Path 99" d="M262.473,230.545h-7.982v3.991h7.982v-3.991Z" fill="#f2f7fd" fill-rule="evenodd"/> <path id="Path_100" data-name="Path 100" d="M262.473,230.545h-7.982v3.991h7.982v-3.991Zm0,7.982h-7.982v3.991h7.982v-3.991Zm0,7.982h-7.982V250.5h7.982v-3.991Zm0,7.982h-7.982v3.991h7.982v-3.991Zm-15.964-23.946h-7.982v3.991h7.982v-3.991Zm0,7.982h-7.982v3.991h7.982v-3.991Zm0,7.982h-7.982V250.5h7.982v-3.991Zm0,7.982h-7.982v3.991h7.982v-3.991Zm3.991,7.982v11.973m3.991-11.973h-7.982v11.973h7.982V262.473Zm-7.982-35.919H234.536v47.892h31.928V226.554H254.491m-3.492,0h-1m20.454,47.892h-39.91" fill="none" stroke="#0f0e0b" stroke-linecap="round" stroke-linejoin="round" stroke-width="1"/> </g> </g>
</svg>